<svg xmlns="http://www.w3.org/2000/svg" xmlns:xlink="http://www.w3.org/1999/xlink" width="740" zoomAndPan="magnify" viewBox="380 170 740 670" height="670" preserveAspectRatio="xMidYMid meet" version="1.0"><defs><g/><clipPath id="cb5ce9a045"><path d="M 422.285156 209.390625 L 1078 209.390625 L 1078 859 L 422.285156 859 Z M 422.285156 209.390625 " clip-rule="nonzero"/></clipPath><clipPath id="ba3be5ff4a"><path d="M 454.121094 209.390625 C 436.53125 209.390625 422.285156 223.636719 422.285156 241.226562 L 422.285156 826.496094 C 422.285156 844.082031 436.53125 858.332031 454.121094 858.332031 L 1045.882812 858.332031 C 1063.410156 858.332031 1077.632812 844.167969 1077.714844 826.65625 L 1077.714844 241.066406 C 1077.632812 223.554688 1063.410156 209.390625 1045.882812 209.390625 Z M 454.121094 209.390625 " clip-rule="nonzero"/></clipPath><clipPath id="47c8a9520b"><path d="M 0.285156 0.390625 L 655.839844 0.390625 L 655.839844 649.480469 L 0.285156 649.480469 Z M 0.285156 0.390625 " clip-rule="nonzero"/></clipPath><clipPath id="516112b5a2"><path d="M 32.121094 0.390625 C 14.53125 0.390625 0.285156 14.636719 0.285156 32.226562 L 0.285156 617.496094 C 0.285156 635.082031 14.53125 649.332031 32.121094 649.332031 L 623.882812 649.332031 C 641.410156 649.332031 655.632812 635.167969 655.714844 617.65625 L 655.714844 32.066406 C 655.632812 14.554688 641.410156 0.390625 623.882812 0.390625 Z M 32.121094 0.390625 " clip-rule="nonzero"/></clipPath><clipPath id="197fefa920"><rect x="0" width="656" y="0" height="650"/></clipPath><clipPath id="e90ce8cca0"><path d="M 516.84375 318.78125 L 986 318.78125 L 986 646.960938 L 516.84375 646.960938 Z M 516.84375 318.78125 " clip-rule="nonzero"/></clipPath><clipPath id="f57f14407c"><path d="M 803.511719 318.800781 L 933.816406 318.800781 C 968.5625 318.800781 985.9375 340.613281 985.9375 384.25 L 985.9375 646.035156 L 933.816406 646.035156 L 933.816406 384.25 L 777.449219 384.25 L 777.449219 646.035156 L 725.332031 646.035156 L 725.332031 384.25 L 568.964844 384.25 L 568.964844 646.035156 L 516.84375 646.035156 L 516.84375 384.25 C 516.84375 340.625 534.21875 318.800781 568.964844 318.800781 L 699.269531 318.800781 C 733.480469 318.800781 750.84375 340.613281 751.390625 384.25 C 751.929688 340.625 769.3125 318.800781 803.511719 318.800781 " clip-rule="nonzero"/></clipPath><clipPath id="254776a827"><path d="M 0.84375 0.78125 L 470 0.78125 L 470 328.078125 L 0.84375 328.078125 Z M 0.84375 0.78125 " clip-rule="nonzero"/></clipPath><clipPath id="c1bec41571"><path d="M 287.511719 0.800781 L 417.816406 0.800781 C 452.5625 0.800781 469.9375 22.613281 469.9375 66.25 L 469.9375 328.035156 L 417.816406 328.035156 L 417.816406 66.25 L 261.449219 66.25 L 261.449219 328.035156 L 209.332031 328.035156 L 209.332031 66.25 L 52.964844 66.25 L 52.964844 328.035156 L 0.84375 328.035156 L 0.84375 66.25 C 0.84375 22.625 18.21875 0.800781 52.964844 0.800781 L 183.269531 0.800781 C 217.480469 0.800781 234.84375 22.613281 235.390625 66.25 C 235.929688 22.625 253.3125 0.800781 287.511719 0.800781 " clip-rule="nonzero"/></clipPath><clipPath id="35485f0e50"><rect x="0" width="470" y="0" height="329"/></clipPath><clipPath id="635a040eeb"><path d="M 620.675781 383.675781 L 986 383.675781 L 986 711 L 620.675781 711 Z M 620.675781 383.675781 " clip-rule="nonzero"/></clipPath><clipPath id="9aa5511d0b"><path d="M 620.675781 710.929688 L 620.675781 383.722656 L 933.753906 596.917969 L 933.753906 383.722656 L 985.9375 383.722656 L 985.9375 671.058594 C 985.9375 686.808594 962.613281 695.355469 947.390625 685.183594 L 672.859375 501.820312 L 672.859375 710.929688 Z M 620.675781 710.929688 " clip-rule="nonzero"/></clipPath><clipPath id="9afddb47ba"><path d="M 0.675781 0.675781 L 366 0.675781 L 366 328 L 0.675781 328 Z M 0.675781 0.675781 " clip-rule="nonzero"/></clipPath><clipPath id="37867a95ff"><path d="M 0.675781 327.929688 L 0.675781 0.722656 L 313.753906 213.917969 L 313.753906 0.722656 L 365.9375 0.722656 L 365.9375 288.058594 C 365.9375 303.808594 342.613281 312.355469 327.390625 302.183594 L 52.859375 118.820312 L 52.859375 327.929688 Z M 0.675781 327.929688 " clip-rule="nonzero"/></clipPath><clipPath id="3c3808ac48"><rect x="0" width="366" y="0" height="328"/></clipPath><clipPath id="4369b0d472"><path d="M 454 746.15625 L 538 746.15625 L 538 806 L 454 806 Z M 454 746.15625 " clip-rule="nonzero"/></clipPath><clipPath id="0dbb8bc33d"><path d="M 454.5 746.539062 L 525.417969 746.539062 L 537.238281 758.359375 L 501.78125 758.359375 L 501.78125 805.636719 L 489.960938 805.636719 L 489.960938 758.359375 L 466.320312 758.359375 Z M 454.5 746.539062 " clip-rule="nonzero"/></clipPath><clipPath id="716cc00764"><path d="M 0.320312 0.398438 L 83.359375 0.398438 L 83.359375 59.679688 L 0.320312 59.679688 Z M 0.320312 0.398438 " clip-rule="nonzero"/></clipPath><clipPath id="07b264a636"><path d="M 0.5 0.539062 L 71.417969 0.539062 L 83.238281 12.359375 L 47.78125 12.359375 L 47.78125 59.636719 L 35.960938 59.636719 L 35.960938 12.359375 L 12.320312 12.359375 Z M 0.5 0.539062 " clip-rule="nonzero"/></clipPath><clipPath id="a773e77174"><rect x="0" width="84" y="0" height="60"/></clipPath><clipPath id="b512230cc2"><path d="M 549 746.15625 L 632 746.15625 L 632 806 L 549 806 Z M 549 746.15625 " clip-rule="nonzero"/></clipPath><clipPath id="0d181bc4d5"><path d="M 560.878906 793.808594 L 619.980469 793.808594 L 619.980469 758.347656 L 560.878906 758.347656 Z M 560.878906 746.527344 L 619.980469 746.527344 C 627.859375 746.527344 631.800781 750.46875 631.800781 758.347656 L 631.800781 793.808594 C 631.800781 801.6875 627.859375 805.628906 619.980469 805.628906 L 560.878906 805.628906 C 553 805.628906 549.058594 801.6875 549.058594 793.808594 L 549.058594 758.359375 C 549.058594 750.476562 553 746.539062 560.878906 746.539062 " clip-rule="nonzero"/></clipPath><clipPath id="05a911a820"><path d="M 0 0.398438 L 82.921875 0.398438 L 82.921875 59.679688 L 0 59.679688 Z M 0 0.398438 " clip-rule="nonzero"/></clipPath><clipPath id="74079e231a"><path d="M 11.878906 47.808594 L 70.980469 47.808594 L 70.980469 12.347656 L 11.878906 12.347656 Z M 11.878906 0.527344 L 70.980469 0.527344 C 78.859375 0.527344 82.800781 4.46875 82.800781 12.347656 L 82.800781 47.808594 C 82.800781 55.6875 78.859375 59.628906 70.980469 59.628906 L 11.878906 59.628906 C 4 59.628906 0.0585938 55.6875 0.0585938 47.808594 L 0.0585938 12.359375 C 0.0585938 4.476562 4 0.539062 11.878906 0.539062 " clip-rule="nonzero"/></clipPath><clipPath id="b1891bfe97"><rect x="0" width="83" y="0" height="60"/></clipPath><clipPath id="179d38afca"><path d="M 643 746.15625 L 750 746.15625 L 750 806 L 643 806 Z M 643 746.15625 " clip-rule="nonzero"/></clipPath><clipPath id="8164c0cf28"><path d="M 696.804688 793.808594 C 696.683594 801.6875 692.746094 805.628906 684.984375 805.628906 L 655.441406 805.628906 C 647.558594 805.628906 643.621094 801.6875 643.621094 793.808594 L 643.621094 746.527344 L 655.441406 746.527344 L 655.441406 793.808594 L 690.898438 793.808594 L 690.898438 746.527344 L 702.71875 746.527344 L 702.71875 793.808594 L 738.179688 793.808594 L 738.179688 746.527344 L 750 746.527344 L 750 793.808594 C 750 801.6875 746.058594 805.628906 738.179688 805.628906 L 708.625 805.628906 C 700.867188 805.628906 696.925781 801.6875 696.804688 793.808594 " clip-rule="nonzero"/></clipPath><clipPath id="a05a78d571"><path d="M 0.441406 0.398438 L 107 0.398438 L 107 59.679688 L 0.441406 59.679688 Z M 0.441406 0.398438 " clip-rule="nonzero"/></clipPath><clipPath id="1600bc0f4c"><path d="M 53.804688 47.808594 C 53.683594 55.6875 49.746094 59.628906 41.984375 59.628906 L 12.441406 59.628906 C 4.558594 59.628906 0.621094 55.6875 0.621094 47.808594 L 0.621094 0.527344 L 12.441406 0.527344 L 12.441406 47.808594 L 47.898438 47.808594 L 47.898438 0.527344 L 59.71875 0.527344 L 59.71875 47.808594 L 95.179688 47.808594 L 95.179688 0.527344 L 107 0.527344 L 107 47.808594 C 107 55.6875 103.058594 59.628906 95.179688 59.628906 L 65.625 59.628906 C 57.867188 59.628906 53.925781 55.6875 53.804688 47.804594 " clip-rule="nonzero"/></clipPath><clipPath id="bb7bd867c7"><rect x="0" width="107" y="0" height="60"/></clipPath><clipPath id="7e1ba9d748"><path d="M 761.589844 746.15625 L 845 746.15625 L 845 806 L 761.589844 806 Z M 761.589844 746.15625 " clip-rule="nonzero"/></clipPath><clipPath id="a25ea2f3c9"><path d="M 844.558594 805.628906 L 761.820312 805.628906 L 761.820312 793.808594 L 832.742188 793.808594 Z M 844.558594 781.988281 L 761.820312 781.988281 L 761.820312 770.167969 L 832.742188 770.167969 Z M 844.558594 758.347656 L 761.820312 758.347656 L 761.820312 746.527344 L 832.742188 746.527344 Z M 844.558594 758.347656 " clip-rule="nonzero"/></clipPath><clipPath id="9fdf85ca00"><path d="M 0.761719 0.398438 L 83.800781 0.398438 L 83.800781 59.679688 L 0.761719 59.679688 Z M 0.761719 0.398438 " clip-rule="nonzero"/></clipPath><clipPath id="0cf6878af3"><path d="M 83.558594 59.628906 L 0.820312 59.628906 L 0.820312 47.808594 L 71.742188 47.808594 Z M 83.558594 35.988281 L 0.820312 35.988281 L 0.820312 24.167969 L 71.742188 24.167969 Z M 83.558594 12.347656 L 0.820312 12.347656 L 0.820312 0.527344 L 71.742188 0.527344 Z M 83.558594 12.347656 " clip-rule="nonzero"/></clipPath><clipPath id="2180366924"><rect x="0" width="84" y="0" height="60"/></clipPath><clipPath id="66e5bef6ea"><path d="M 856.148438 746.15625 L 939.582031 746.15625 L 939.582031 806 L 856.148438 806 Z M 856.148438 746.15625 " clip-rule="nonzero"/></clipPath><clipPath id="52f681202f"><path d="M 856.378906 758.359375 L 856.378906 746.539062 L 927.300781 746.539062 C 935.179688 746.539062 939.121094 750.476562 939.121094 758.359375 L 939.121094 770.179688 C 939.121094 778.058594 935.246094 782 927.484375 782 L 915.480469 782 L 939.121094 805.636719 L 924.34375 805.636719 L 900.703125 782 L 868.199219 782 L 868.199219 805.636719 L 856.378906 805.636719 L 856.378906 770.179688 L 927.300781 770.179688 L 927.300781 758.359375 Z M 856.378906 758.359375 " clip-rule="nonzero"/></clipPath><clipPath id="6a01db39e2"><path d="M 0.320312 0.398438 L 83.359375 0.398438 L 83.359375 59.679688 L 0.320312 59.679688 Z M 0.320312 0.398438 " clip-rule="nonzero"/></clipPath><clipPath id="63e6915e4a"><path d="M 0.378906 12.359375 L 0.378906 0.539062 L 71.300781 0.539062 C 79.179688 0.539062 83.121094 4.476562 83.121094 12.359375 L 83.121094 24.179688 C 83.121094 32.058594 79.246094 36 71.484375 36 L 59.480469 36 L 83.121094 59.636719 L 68.34375 59.636719 L 44.703125 36 L 12.199219 36 L 12.199219 59.636719 L 0.378906 59.636719 L 0.378906 24.179688 L 71.300781 24.179688 L 71.300781 12.359375 Z M 0.378906 12.359375 " clip-rule="nonzero"/></clipPath><clipPath id="b5fed47c3b"><rect x="0" width="84" y="0" height="60"/></clipPath><clipPath id="26db944c7c"><path d="M 950.707031 746.15625 L 1034 746.15625 L 1034 806 L 950.707031 806 Z M 950.707031 746.15625 " clip-rule="nonzero"/></clipPath><clipPath id="ed34a8d299"><path d="M 1033.679688 758.359375 L 962.761719 758.359375 L 962.761719 770.179688 L 1021.859375 770.179688 C 1029.742188 770.179688 1033.679688 774.117188 1033.679688 782 L 1033.679688 793.816406 C 1033.679688 801.699219 1029.742188 805.636719 1021.859375 805.636719 L 950.941406 805.636719 L 950.941406 793.816406 L 1021.859375 793.816406 L 1021.859375 782 L 962.761719 782 C 954.878906 782 950.941406 778.058594 950.941406 770.179688 L 950.941406 758.359375 C 950.941406 750.476562 954.878906 746.539062 962.761719 746.539062 L 1033.679688 746.539062 Z M 1033.679688 758.359375 " clip-rule="nonzero"/></clipPath><clipPath id="9a1807ba4c"><path d="M 0.878906 0.398438 L 83.921875 0.398438 L 83.921875 59.679688 L 0.878906 59.679688 Z M 0.878906 0.398438 " clip-rule="nonzero"/></clipPath><clipPath id="2524f3e9da"><path d="M 83.679688 12.359375 L 12.761719 12.359375 L 12.761719 24.179688 L 71.859375 24.179688 C 79.742188 24.179688 83.679688 28.117188 83.679688 36 L 83.679688 47.816406 C 83.679688 55.699219 79.742188 59.636719 71.859375 59.636719 L 0.941406 59.636719 L 0.941406 47.816406 L 71.859375 47.816406 L 71.859375 36 L 12.761719 36 C 4.878906 36 0.941406 32.058594 0.941406 24.179688 L 0.941406 12.359375 C 0.941406 4.476562 4.878906 0.539062 12.761719 0.539062 L 83.679688 0.539062 Z M 83.679688 12.359375 " clip-rule="nonzero"/></clipPath><clipPath id="0967ba9390"><rect x="0" width="84" y="0" height="60"/></clipPath><clipPath id="6ed778b242"><path d="M 23 261 L 1328.160156 261 L 1328.160156 354.398438 L 23 354.398438 Z M 23 261 " clip-rule="nonzero"/></clipPath><clipPath id="5d4c9657c8"><rect x="0" width="1306" y="0" height="94"/></clipPath><clipPath id="1fd23fec2e"><rect x="0" width="1329" y="0" height="355"/></clipPath></defs><g clip-path="url(#cb5ce9a045)"><g clip-path="url(#ba3be5ff4a)"><g transform="matrix(1, 0, 0, 1, 422, 209)"><g clip-path="url(#197fefa920)"><g clip-path="url(#47c8a9520b)"><g clip-path="url(#516112b5a2)"><rect x="-752" width="2160" fill="#263f60" height="2159.999904" y="-538.999985" fill-opacity="1"/></g></g></g></g></g></g><g clip-path="url(#e90ce8cca0)"><g clip-path="url(#f57f14407c)"><g transform="matrix(1, 0, 0, 1, 516, 318)"><g clip-path="url(#35485f0e50)"><g clip-path="url(#254776a827)"><g clip-path="url(#c1bec41571)"><rect x="-846" width="2160" fill="#ffffff" height="2159.999904" y="-647.999985" fill-opacity="1"/></g></g></g></g></g></g><g clip-path="url(#635a040eeb)"><g clip-path="url(#9aa5511d0b)"><g transform="matrix(1, 0, 0, 1, 620, 383)"><g clip-path="url(#3c3808ac48)"><g clip-path="url(#9afddb47ba)"><g clip-path="url(#37867a95ff)"><rect x="-950" width="2160" fill="#cae8ff" height="2159.999904" y="-712.999985" fill-opacity="1"/></g></g></g></g></g></g><g clip-path="url(#4369b0d472)"><g clip-path="url(#0dbb8bc33d)"><g transform="matrix(1, 0, 0, 1, 454, 746)"><g clip-path="url(#a773e77174)"><g clip-path="url(#716cc00764)"><g clip-path="url(#07b264a636)"><rect x="-784" width="2160" fill="#ffffff" height="2159.999904" y="-1075.999985" fill-opacity="1"/></g></g></g></g></g></g><g clip-path="url(#b512230cc2)"><g clip-path="url(#0d181bc4d5)"><g transform="matrix(1, 0, 0, 1, 549, 746)"><g clip-path="url(#b1891bfe97)"><g clip-path="url(#05a911a820)"><g clip-path="url(#74079e231a)"><rect x="-879" width="2160" fill="#ffffff" height="2159.999904" y="-1075.999985" fill-opacity="1"/></g></g></g></g></g></g><g clip-path="url(#179d38afca)"><g clip-path="url(#8164c0cf28)"><g transform="matrix(1, 0, 0, 1, 643, 746)"><g clip-path="url(#bb7bd867c7)"><g clip-path="url(#a05a78d571)"><g clip-path="url(#1600bc0f4c)"><rect x="-973" width="2160" fill="#ffffff" height="2159.999904" y="-1075.999985" fill-opacity="1"/></g></g></g></g></g></g><g clip-path="url(#7e1ba9d748)"><g clip-path="url(#a25ea2f3c9)"><g transform="matrix(1, 0, 0, 1, 761, 746)"><g clip-path="url(#2180366924)"><g clip-path="url(#9fdf85ca00)"><g clip-path="url(#0cf6878af3)"><rect x="-1091" width="2160" fill="#ffffff" height="2159.999904" y="-1075.999985" fill-opacity="1"/></g></g></g></g></g></g><g clip-path="url(#66e5bef6ea)"><g clip-path="url(#52f681202f)"><g transform="matrix(1, 0, 0, 1, 856, 746)"><g clip-path="url(#b5fed47c3b)"><g clip-path="url(#6a01db39e2)"><g clip-path="url(#63e6915e4a)"><rect x="-1186" width="2160" fill="#ffffff" height="2159.999904" y="-1075.999985" fill-opacity="1"/></g></g></g></g></g></g><g clip-path="url(#26db944c7c)"><g clip-path="url(#ed34a8d299)"><g transform="matrix(1, 0, 0, 1, 950, 746)"><g clip-path="url(#0967ba9390)"><g clip-path="url(#9a1807ba4c)"><g clip-path="url(#2524f3e9da)"><rect x="-1280" width="2160" fill="#ffffff" height="2159.999904" y="-1075.999985" fill-opacity="1"/></g></g></g></g></g></g></svg>
